HIERARCHY
ROOT Hips
{
	OFFSET -3.958830 18.904000 13.208200
	CHANNELS 6 Xposition Yposition Zposition Zrotation Yrotation Xrotation 
	JOINT LHipJoint
	{
		OFFSET 0.000000 0.000000 0.000000
		CHANNELS 3 Zrotation Yrotation Xrotation
		JOINT LeftUpLeg
		{
			OFFSET 1.800000 -1.400000 0.085000
			CHANNELS 3 Zrotation Yrotation Xrotation
			JOINT LeftLeg
			{
				OFFSET 2.215000 -6.000000 0.000000
				CHANNELS 3 Zrotation Yrotation Xrotation
				JOINT LeftFoot
				{
					OFFSET 2.500000 -6.900000 0.000000
					CHANNELS 3 Zrotation Yrotation Xrotation
					JOINT LeftToeBase
					{
						OFFSET 0.200000 -0.500000 1.950000
						CHANNELS 3 Zrotation Yrotation Xrotation
						End Site
						{
							OFFSET 0.000000 0.000000 0.000000
						}
					}
				}
			}
		}
	}
	JOINT RHipJoint
	{
		OFFSET 0.000000 0.000000 0.000000
		CHANNELS 3 Zrotation Yrotation Xrotation
		JOINT RightUpLeg
		{
			OFFSET -1.800000 -1.400000 0.085000
			CHANNELS 3 Zrotation Yrotation Xrotation
			JOINT RightLeg
			{
				OFFSET -2.215000 -6.000000 0.000000
				CHANNELS 3 Zrotation Yrotation Xrotation
				JOINT RightFoot
				{
					OFFSET -2.500000 -6.900000 0.000000
					CHANNELS 3 Zrotation Yrotation Xrotation
					JOINT RightToeBase
					{
						OFFSET -0.200000 -0.500000 1.950000
						CHANNELS 3 Zrotation Yrotation Xrotation
						End Site
						{
							OFFSET 0.000000 0.000000 0.000000
						}
					}
				}
			}
		}
	}
	JOINT LowerBack
	{
		OFFSET 0.000000 0.000000 0.000000
		CHANNELS 3 Zrotation Yrotation Xrotation
		JOINT Spine
		{
			OFFSET -0.087000 1.940000 -0.288900
			CHANNELS 3 Zrotation Yrotation Xrotation
			JOINT Spine1
			{
				OFFSET 0.000000 1.950000 0.060000
				CHANNELS 3 Zrotation Yrotation Xrotation
				JOINT Neck
				{
					OFFSET 0.000000 0.000000 0.000000
					CHANNELS 3 Zrotation Yrotation Xrotation
					JOINT Neck1
					{
						OFFSET 0.000000 1.600000 0.340000
						CHANNELS 3 Zrotation Yrotation Xrotation
						JOINT Head
						{
							OFFSET 0.000000 1.667000 -0.240000
							CHANNELS 3 Zrotation Yrotation Xrotation
							End Site
							{
								OFFSET 0.000000 0.000000 0.000000
							}
						}
					}
				}
				JOINT LeftShoulder
				{
					OFFSET 0.000000 0.000000 0.000000
					CHANNELS 3 Zrotation Yrotation Xrotation
					JOINT LeftArm
					{
						OFFSET 2.700000 1.550000 -0.730000
						CHANNELS 3 Zrotation Yrotation Xrotation
						JOINT LeftForeArm
						{
							OFFSET 5.450000 0.000000 0.000000
							CHANNELS 3 Zrotation Yrotation Xrotation
							JOINT LeftHand
							{
								OFFSET 3.450000 0.000000 0.000000
								CHANNELS 3 Zrotation Yrotation Xrotation
								JOINT LeftHandIndex1
								{
									OFFSET 0.750000 0.000000 0.000000
									CHANNELS 3 Zrotation Yrotation Xrotation
									End Site
									{
										OFFSET 0.000000 0.000000 0.000000
									}
								}
							}
						}
					}
				}
				JOINT RightShoulder
				{
					OFFSET 0.000000 0.000000 0.000000
					CHANNELS 3 Zrotation Yrotation Xrotation
					JOINT RightArm
					{
						OFFSET -2.700000 1.550000 -0.730000
						CHANNELS 3 Zrotation Yrotation Xrotation
						JOINT RightForeArm
						{
							OFFSET -5.450000 0.000000 0.000000
							CHANNELS 3 Zrotation Yrotation Xrotation
							JOINT RightHand
							{
								OFFSET -3.450000 0.000000 0.000000
								CHANNELS 3 Zrotation Yrotation Xrotation
								JOINT RightHandIndex1
								{
									OFFSET -0.750000 0.000000 0.000000
									CHANNELS 3 Zrotation Yrotation Xrotation
									End Site
									{
										OFFSET 0.000000 0.000000 0.000000
									}
								}
							}
						}
					}
				}
			}
		}
	}
}
MOTION
Frames: 10
Frame Time: 0.016667
22.274760 17.429120 -20.494030 -41.191989 -64.140873 18.105357 -15.928563 10.704926 5.628756 24.926809 0.048935 -15.528677 -15.687103 1.807832 -19.651300 0.378534 5.485166 2.528812 0.794770 1.047530 0.318890 17.857852 -7.568376 4.219469 -8.458285 13.512412 -41.954697 17.419568 -5.316654 16.990777 -0.161625 -2.807787 3.224392 0.541390 -0.184710 0.015300 -3.472365 -2.868854 -9.689644 36.939142 -13.819729 34.368472 -15.175492 2.920258 8.978302 18.387684 -6.019694 -16.042909 -9.125656 -12.998732 24.604365 -2.620310 -10.600040 -17.425620 -3.786751 -31.743040 10.862826 -28.148571 -37.118939 2.616408 -13.444098 -32.296628 3.076143 -2.735012 3.340207 0.328790 -0.194020 0.288900 0.404250 -31.586617 36.962064 4.315865 -28.876320 -23.830284 -19.130557 -48.927726 30.359285 -7.952739 3.966713 -3.193077 0.037220 -0.046380 -0.609400 0.197260 
22.272500 17.359130 -20.503590 -41.529364 -64.903112 20.325408 -16.077185 10.225164 5.956733 25.078154 0.064550 -17.339440 -15.671131 0.994349 -23.509580 0.386246 5.601436 2.481574 0.771290 1.018430 0.336090 17.792660 -7.214722 4.267684 -8.991865 14.052878 -42.994410 17.728393 -3.144121 9.879641 -0.081181 -2.119121 3.445969 0.533840 -0.194560 0.002510 -3.479905 -2.830604 -9.915008 35.756997 -13.957092 35.049971 -14.930381 2.884782 8.705451 18.619108 -5.746835 -16.242695 -7.575839 -12.975444 22.216887 -3.308880 -8.444550 -19.348300 -5.890656 -29.635249 10.021155 -28.168118 -32.096503 -1.725202 -15.989348 -40.524484 3.932761 -2.661602 3.534060 0.352220 -0.193910 0.270670 0.344400 -29.844226 36.134554 7.029791 -29.675771 -21.146643 -20.011414 -51.427911 12.454715 -5.923530 3.938182 -2.925723 0.013590 -0.031860 -0.550500 0.142290 
22.238980 17.249310 -20.532060 -34.673391 -64.623096 16.427918 -16.162788 9.976883 6.173316 20.952103 -0.355642 -21.373099 -14.490676 -0.490796 -30.285926 0.331703 5.386688 2.563264 0.723210 0.817310 0.461910 17.745135 -6.724650 4.427627 -14.701722 13.756393 -43.716599 19.357990 -0.729014 1.121578 -0.157961 -1.995008 3.380894 0.381510 -0.274050 0.102710 -3.221583 -3.127625 -10.340991 30.791342 -13.433476 35.223070 -15.464246 2.147706 8.011372 18.842440 -2.208647 -18.624598 -3.195682 -11.709703 24.916930 -5.780400 -5.070910 -19.943290 -7.965746 -31.432437 11.036126 -23.728656 -32.626367 -1.491266 -10.061525 -32.160709 1.868640 -2.780188 3.472141 0.470020 -0.218310 0.285780 0.199170 -28.592329 38.980937 6.203915 -30.271708 -11.348684 -24.994614 -48.482373 11.521404 -6.401297 3.887746 -2.851763 0.026700 -0.137220 -0.433180 -0.007020 
22.275570 17.231030 -20.595170 -25.662993 -62.035854 3.138348 -15.862305 11.880681 5.073424 7.649992 -0.959250 -16.288869 -4.507413 1.077396 -31.018591 0.033466 4.211944 3.087912 0.740540 0.832110 0.521330 17.874425 -7.395280 4.240038 -14.435150 10.389205 -41.020721 14.625366 -1.540559 3.950141 -0.109350 -1.650680 3.562397 0.400320 -0.325620 -0.096320 -2.371450 -4.531225 -9.573130 24.960546 -13.605242 43.850948 -13.359869 0.952023 4.199479 18.196030 -4.136740 -17.289982 -7.481847 -12.500639 25.612548 -1.630220 -7.950260 -26.117590 -6.079126 -30.019677 9.752360 -23.944745 -30.567257 -3.819395 -21.004734 -40.934901 5.565658 -2.443826 3.402211 0.646670 -0.378080 0.321910 0.197750 -28.305395 37.278989 6.557384 -31.518907 -17.142050 -20.411192 -41.201924 20.967902 -5.158618 3.410432 -2.627960 -0.104760 0.034350 -0.501990 -0.037070 
22.235660 17.168630 -20.628350 -16.376424 -59.466455 -7.744981 -15.681997 12.985619 4.414409 -1.144432 0.334152 -7.154973 1.344440 2.759288 -26.575376 0.027084 3.813789 3.246419 0.721980 0.793940 0.501950 17.981192 -7.874089 4.109814 -15.393896 6.384667 -37.680381 10.372204 -0.750583 -1.788362 -0.176415 -1.479143 3.643847 0.331140 -0.380860 -0.124620 -1.964415 -5.430774 -9.226735 20.236431 -12.354799 46.847733 -12.578948 -0.193265 4.174219 17.041797 -3.788807 -18.755471 -10.572216 -11.422428 30.731705 1.712910 -9.852820 -30.670450 -5.700584 -32.787665 9.172067 -18.815277 -33.529173 -1.256298 -23.305344 -33.397522 5.802587 -2.409572 3.130269 0.757290 -0.500720 0.400950 0.200830 -26.416287 40.213354 8.618920 -32.002749 -11.481014 -24.026478 -45.021308 2.654935 -4.299343 3.814944 -2.255199 -0.092910 0.087200 -0.489920 -0.031640 
22.160330 17.085990 -20.643550 -5.819708 -56.867778 -18.099620 -15.786476 13.444977 3.914131 -8.236523 1.990131 -0.101273 6.434221 3.791146 -19.286576 0.085445 3.632957 3.263068 0.702420 0.776230 0.481440 17.936528 -7.263049 4.418194 -20.124510 2.546384 -32.445194 9.279481 0.517196 -13.178691 -0.441033 -2.471307 3.283044 0.284120 -0.425220 -0.085860 -0.987843 -7.333044 -9.497514 10.835498 -8.063422 49.443958 -9.462938 -1.256106 4.437723 17.367512 -1.861737 -20.466413 -9.681867 -9.598869 33.806278 2.102900 -8.687440 -31.672260 -7.466027 -34.432717 10.661565 -15.360401 -32.593351 -0.859746 -22.784504 -28.712819 5.037161 -2.420471 3.078978 0.768060 -0.533910 0.447860 0.181030 -25.309370 40.959356 9.766377 -32.007333 -12.448438 -23.930906 -44.639371 -1.425710 -3.457147 3.873195 -2.159758 -0.036430 0.050550 -0.455600 -0.033250 
22.106210 16.993510 -20.613470 -2.685664 -56.200426 -20.502519 -15.825642 14.111354 3.283634 -10.698310 2.881665 1.250545 14.841044 2.753232 -0.083792 -0.054729 3.315251 3.353366 0.608040 0.646810 0.448050 17.880086 -6.922814 4.832656 -22.080443 1.217726 -32.723655 9.977114 0.747808 -15.948711 -0.497119 -2.893256 3.119599 0.207460 -0.390920 0.002260 -0.336658 -8.877111 -9.417319 6.908194 -6.103735 50.341370 -6.478695 -1.952229 2.390657 18.568560 -1.344211 -19.687731 -8.553678 -8.851631 33.267210 -3.980950 -6.796860 -28.142250 -9.842666 -31.942539 11.159940 -16.780929 -29.127956 -3.879112 -28.641825 -39.597450 8.602430 -2.344347 3.448568 0.714660 -0.440130 0.418340 0.136440 -25.022323 38.054918 10.120936 -32.689918 -17.122946 -18.129094 -38.370887 8.162510 -3.054530 3.325516 -2.030909 -0.016130 0.004190 -0.359430 -0.064350 
22.057120 16.879300 -20.613540 -0.686731 -55.878141 -22.095273 -15.707176 14.354084 3.156785 -11.478008 2.672622 0.889069 16.021995 1.673111 13.075128 -0.102653 3.642449 3.252575 0.557630 0.547840 0.457910 17.939570 -7.292178 4.782756 -22.153833 0.525240 -36.619518 9.823627 -0.236855 -11.021856 -0.391114 -2.498800 3.247747 0.159090 -0.360650 -0.052320 -0.534113 -8.628734 -9.186727 6.377221 -5.524932 51.041590 -5.984844 -2.017315 2.048161 17.324940 -0.619496 -20.854919 -7.911531 -7.694904 35.051810 -1.915860 -6.199870 -29.401950 -9.016316 -33.514542 11.648697 -16.545508 -29.214503 -4.507395 -29.020440 -40.436576 8.784484 -2.283735 3.338085 0.805200 -0.470200 0.401370 0.109950 -23.663685 39.735291 10.182367 -34.005437 -11.650759 -21.816887 -40.558996 -2.690896 -2.608168 3.660243 -1.829084 -0.097650 0.083370 -0.319320 -0.109650 
21.994320 16.790220 -20.602550 1.323657 -54.118095 -25.220986 -15.765472 14.443490 3.115623 -11.632944 2.763602 2.448365 15.238944 1.600208 18.612906 -0.046349 4.146197 3.049782 0.654390 0.681780 0.488710 17.914048 -7.193431 4.655201 -23.581267 -1.238649 -35.640645 10.921939 -0.748657 -9.574441 -0.436256 -2.768282 3.105766 0.266570 -0.374350 -0.055480 -0.164089 -9.274520 -9.233027 3.931475 -4.096581 51.519898 -3.391304 -2.780947 4.210588 16.961719 -1.406258 -19.642124 -9.701200 -8.537990 34.165779 -1.148460 -8.327270 -30.060000 -7.966949 -34.987045 10.095208 -13.674662 -33.585397 -1.859697 -28.649497 -33.646086 7.469230 -2.468536 3.111897 0.772380 -0.477550 0.410310 0.130360 -24.006327 39.566015 11.231627 -33.179783 -18.781020 -18.650579 -38.252424 2.845342 -2.710813 3.398951 -1.891445 -0.070130 0.119160 -0.339730 -0.090980 
21.799860 16.642560 -20.629730 8.908727 -48.393740 -28.556252 -16.209452 13.396906 3.015379 -16.552632 1.998223 1.232213 15.362178 1.308720 18.477555 0.113171 3.882851 3.062766 0.633410 0.682340 0.406640 17.790334 -5.676968 5.983220 -34.847031 -4.267518 -32.692816 16.178951 0.506440 -17.112601 -0.809345 -4.589608 2.423618 0.187080 -0.436320 0.019350 -0.321727 -9.200047 -10.032803 -2.437611 -0.184470 46.535271 -0.715868 -2.696503 5.067015 15.020912 0.869568 -22.194875 -6.718504 -9.339431 37.965267 0.411520 -9.406770 -27.623780 -7.120241 -38.332999 11.481959 -13.479666 -33.297722 -1.134605 -30.278366 -32.450118 7.765973 -2.413779 3.241647 0.691870 -0.503670 0.437260 0.135370 -21.759058 42.625430 11.796739 -31.788478 -12.132970 -24.969939 -49.202470 -13.567100 -0.349758 4.129167 -2.116334 0.071890 -0.059920 -0.350330 -0.021210 
